<svg width="90" height="110" viewBox="0 0 90 110" xmlns="http://www.w3.org/2000/svg">
  
  <defs><clipPath id="c_amor"><path d="M14,18 L76,18 L68,94 L22,94 Z"/></clipPath></defs>
  <polygon points="18.4,59.8 71.6,59.8 68.0,94.0 22.0,94.0" fill="#7A2818" clip-path="url(#c_amor)"/><polygon points="14.8,25.6 75.2,25.6 71.6,59.8 18.4,59.8" fill="#C8824A" clip-path="url(#c_amor)"/><polygon points="14.0,18.0 76.0,18.0 75.2,25.6 14.8,25.6" fill="#E8C89A" clip-path="url(#c_amor)"/><circle cx="35" cy="38" r="1.4" fill="#2A0E04" opacity="0.45" clip-path="url(#c_amor)"/><circle cx="53" cy="53" r="1.4" fill="#2A0E04" opacity="0.45" clip-path="url(#c_amor)"/><circle cx="40" cy="73" r="1.4" fill="#2A0E04" opacity="0.45" clip-path="url(#c_amor)"/><circle cx="57" cy="66" r="1.4" fill="#2A0E04" opacity="0.45" clip-path="url(#c_amor)"/><circle cx="31" cy="60" r="1.4" fill="#2A0E04" opacity="0.45" clip-path="url(#c_amor)"/><circle cx="51" cy="83" r="1.4" fill="#2A0E04" opacity="0.45" clip-path="url(#c_amor)"/><circle cx="37" cy="88" r="1.4" fill="#2A0E04" opacity="0.45" clip-path="url(#c_amor)"/><circle cx="59" cy="48" r="1.4" fill="#2A0E04" opacity="0.45" clip-path="url(#c_amor)"/><circle cx="29" cy="80" r="1.4" fill="#2A0E04" opacity="0.45" clip-path="url(#c_amor)"/><circle cx="55" cy="36" r="1.4" fill="#2A0E04" opacity="0.45" clip-path="url(#c_amor)"/><circle cx="36" cy="24" r="0.9" fill="#6B2010" opacity="0.55" clip-path="url(#c_amor)"/><circle cx="45" cy="22" r="0.9" fill="#6B2010" opacity="0.55" clip-path="url(#c_amor)"/><circle cx="54" cy="25" r="0.9" fill="#6B2010" opacity="0.55" clip-path="url(#c_amor)"/><circle cx="40" cy="28" r="0.9" fill="#6B2010" opacity="0.55" clip-path="url(#c_amor)"/><circle cx="51" cy="27" r="0.9" fill="#6B2010" opacity="0.55" clip-path="url(#c_amor)"/><circle cx="33" cy="27" r="0.9" fill="#6B2010" opacity="0.55" clip-path="url(#c_amor)"/><circle cx="57" cy="23" r="0.9" fill="#6B2010" opacity="0.55" clip-path="url(#c_amor)"/><circle cx="42" cy="31" r="0.9" fill="#6B2010" opacity="0.55" clip-path="url(#c_amor)"/><circle cx="53" cy="31" r="0.9" fill="#6B2010" opacity="0.55" clip-path="url(#c_amor)"/><circle cx="38" cy="21" r="0.9" fill="#6B2010" opacity="0.55" clip-path="url(#c_amor)"/><circle cx="48" cy="21" r="0.9" fill="#6B2010" opacity="0.55" clip-path="url(#c_amor)"/><circle cx="56" cy="30" r="0.9" fill="#6B2010" opacity="0.55" clip-path="url(#c_amor)"/><circle cx="34" cy="31" r="0.9" fill="#6B2010" opacity="0.55" clip-path="url(#c_amor)"/><circle cx="46" cy="28" r="0.9" fill="#6B2010" opacity="0.55" clip-path="url(#c_amor)"/>
  <path d="M14,18 L76,18 L68,94 L22,94 Z" fill="none" stroke="#1a1210" stroke-width="1"/>
  <rect x="22" y="89" width="46" height="5" fill="#1a1210" opacity="0.4" clip-path="url(#c_amor)"/>
  <rect x="13" y="9" width="64" height="9" rx="2" fill="#2e2018" stroke="#1a1210" stroke-width="0.8"/>
<line x1="16" y1="11" x2="74" y2="11" stroke="#4a3020" stroke-width="0.7" stroke-linecap="round"/>
<rect x="33" y="4" width="24" height="6" rx="1.5" fill="#2a1c10" stroke="#1a1210" stroke-width="0.8"/>
</svg>