<svg width="90" height="110" viewBox="0 0 90 110" xmlns="http://www.w3.org/2000/svg">
  
  <defs><clipPath id="c_slushi"><path d="M14,18 L76,18 L68,94 L22,94 Z"/></clipPath></defs>
  <polygon points="19.2,67.4 70.8,67.4 68.0,94.0 22.0,94.0" fill="#4FC3F7" clip-path="url(#c_slushi)"/><polygon points="16.4,40.8 73.6,40.8 70.8,67.4 19.2,67.4" fill="#FFB347" clip-path="url(#c_slushi)"/><polygon points="14.0,18.0 76.0,18.0 73.6,40.8 16.4,40.8" fill="#FF6B8A" clip-path="url(#c_slushi)"/><polyline points="37.0,36.0 41.0,41.0 36.0,46.0 40.0,51.0" fill="none" stroke="rgba(255,255,255,0.45)" stroke-width="0.9" stroke-linecap="round" stroke-linejoin="round" clip-path="url(#c_slushi)"/><polyline points="51.0,40.0 55.0,47.0 52.0,53.0 56.0,58.0" fill="none" stroke="rgba(255,255,255,0.45)" stroke-width="0.9" stroke-linecap="round" stroke-linejoin="round" clip-path="url(#c_slushi)"/><polyline points="33.0,58.0 38.0,64.0 34.0,70.0 37.0,75.0" fill="none" stroke="rgba(255,255,255,0.45)" stroke-width="0.9" stroke-linecap="round" stroke-linejoin="round" clip-path="url(#c_slushi)"/><polyline points="49.0,66.0 53.0,71.0 48.0,78.0 52.0,83.0" fill="none" stroke="rgba(255,255,255,0.45)" stroke-width="0.9" stroke-linecap="round" stroke-linejoin="round" clip-path="url(#c_slushi)"/><polyline points="40.0,48.0 44.0,54.0 48.0,60.0 43.0,66.0" fill="none" stroke="rgba(255,255,255,0.45)" stroke-width="0.9" stroke-linecap="round" stroke-linejoin="round" clip-path="url(#c_slushi)"/><polyline points="55.0,33.0 59.0,40.0 54.0,46.0 58.0,51.0" fill="none" stroke="rgba(255,255,255,0.45)" stroke-width="0.9" stroke-linecap="round" stroke-linejoin="round" clip-path="url(#c_slushi)"/><polyline points="31.0,73.0 36.0,80.0 32.0,86.0 35.0,91.0" fill="none" stroke="rgba(255,255,255,0.45)" stroke-width="0.9" stroke-linecap="round" stroke-linejoin="round" clip-path="url(#c_slushi)"/><polyline points="47.0,80.0 51.0,86.0 46.0,92.0 50.0,96.0" fill="none" stroke="rgba(255,255,255,0.45)" stroke-width="0.9" stroke-linecap="round" stroke-linejoin="round" clip-path="url(#c_slushi)"/><polyline points="42.0,28.0 47.0,34.0 41.0,40.0 46.0,46.0" fill="none" stroke="rgba(255,255,255,0.45)" stroke-width="0.9" stroke-linecap="round" stroke-linejoin="round" clip-path="url(#c_slushi)"/><polyline points="56.0,62.0 59.0,68.0 55.0,74.0 58.0,80.0" fill="none" stroke="rgba(255,255,255,0.45)" stroke-width="0.9" stroke-linecap="round" stroke-linejoin="round" clip-path="url(#c_slushi)"/><polyline points="34.0,43.0 39.0,50.0 35.0,56.0 40.0,62.0" fill="none" stroke="rgba(255,255,255,0.45)" stroke-width="0.9" stroke-linecap="round" stroke-linejoin="round" clip-path="url(#c_slushi)"/><polyline points="48.0,52.0 52.0,59.0 47.0,65.0 51.0,71.0" fill="none" stroke="rgba(255,255,255,0.45)" stroke-width="0.9" stroke-linecap="round" stroke-linejoin="round" clip-path="url(#c_slushi)"/><polyline points="38.0,82.0 43.0,88.0 39.0,94.0 44.0,98.0" fill="none" stroke="rgba(255,255,255,0.45)" stroke-width="0.9" stroke-linecap="round" stroke-linejoin="round" clip-path="url(#c_slushi)"/><polyline points="53.0,26.0 57.0,32.0 52.0,38.0 56.0,44.0" fill="none" stroke="rgba(255,255,255,0.45)" stroke-width="0.9" stroke-linecap="round" stroke-linejoin="round" clip-path="url(#c_slushi)"/><circle cx="35.0" cy="38.0" r="1.2" fill="rgba(255,255,255,0.4)" clip-path="url(#c_slushi)"/><circle cx="50.0" cy="50.0" r="1.2" fill="rgba(255,255,255,0.4)" clip-path="url(#c_slushi)"/><circle cx="39.0" cy="63.0" r="1.2" fill="rgba(255,255,255,0.4)" clip-path="url(#c_slushi)"/><circle cx="54.0" cy="73.0" r="1.2" fill="rgba(255,255,255,0.4)" clip-path="url(#c_slushi)"/><circle cx="32.0" cy="81.0" r="1.2" fill="rgba(255,255,255,0.4)" clip-path="url(#c_slushi)"/><circle cx="48.0" cy="88.0" r="1.2" fill="rgba(255,255,255,0.4)" clip-path="url(#c_slushi)"/><circle cx="56.0" cy="43.0" r="1.2" fill="rgba(255,255,255,0.4)" clip-path="url(#c_slushi)"/><circle cx="41.0" cy="76.0" r="1.2" fill="rgba(255,255,255,0.4)" clip-path="url(#c_slushi)"/><circle cx="52.0" cy="60.0" r="1.2" fill="rgba(255,255,255,0.4)" clip-path="url(#c_slushi)"/><circle cx="36.0" cy="54.0" r="1.2" fill="rgba(255,255,255,0.4)" clip-path="url(#c_slushi)"/><circle cx="57.0" cy="86.0" r="1.2" fill="rgba(255,255,255,0.4)" clip-path="url(#c_slushi)"/><circle cx="38.0" cy="33.0" r="1.2" fill="rgba(255,255,255,0.4)" clip-path="url(#c_slushi)"/><circle cx="43.0" cy="30.0" r="1.2" fill="rgba(255,255,255,0.4)" clip-path="url(#c_slushi)"/><circle cx="53.0" cy="46.0" r="1.2" fill="rgba(255,255,255,0.4)" clip-path="url(#c_slushi)"/><circle cx="34.0" cy="68.0" r="1.2" fill="rgba(255,255,255,0.4)" clip-path="url(#c_slushi)"/><circle cx="49.0" cy="56.0" r="1.2" fill="rgba(255,255,255,0.4)" clip-path="url(#c_slushi)"/><circle cx="58.0" cy="66.0" r="1.2" fill="rgba(255,255,255,0.4)" clip-path="url(#c_slushi)"/><circle cx="39.0" cy="90.0" r="1.2" fill="rgba(255,255,255,0.4)" clip-path="url(#c_slushi)"/><circle cx="55.0" cy="78.0" r="1.2" fill="rgba(255,255,255,0.4)" clip-path="url(#c_slushi)"/><circle cx="42.0" cy="40.0" r="1.2" fill="rgba(255,255,255,0.4)" clip-path="url(#c_slushi)"/>
  <path d="M14,18 L76,18 L68,94 L22,94 Z" fill="none" stroke="#1a1210" stroke-width="1"/>
  <rect x="22" y="89" width="46" height="5" fill="#1a1210" opacity="0.4" clip-path="url(#c_slushi)"/>
  <rect x="13" y="9" width="64" height="9" rx="2" fill="#2e2018" stroke="#1a1210" stroke-width="0.8"/>
<line x1="16" y1="11" x2="74" y2="11" stroke="#4a3020" stroke-width="0.7" stroke-linecap="round"/>
<rect x="33" y="4" width="24" height="6" rx="1.5" fill="#2a1c10" stroke="#1a1210" stroke-width="0.8"/>
</svg>